<svg xmlns="http://www.w3.org/2000/svg" xmlns:xlink="http://www.w3.org/1999/xlink" width="500" zoomAndPan="magnify" viewBox="0 0 375 374.999991" height="500" preserveAspectRatio="xMidYMid meet" version="1.0"><defs><g/></defs><rect x="-37.5" width="450" fill="#ffffff" y="-37.499999" height="449.999989" fill-opacity="1"/><rect x="-37.5" width="450" fill="#000000" y="-37.499999" height="449.999989" fill-opacity="1"/><g fill="#ffffff" fill-opacity="1"><g transform="translate(19.406253, 217.499986)"><g><path d="M 60.375 -55.84375 C 61.269531 -50.5 60.785156 -45.53125 58.921875 -40.9375 C 57.054688 -36.34375 54.066406 -32.46875 49.953125 -29.3125 C 45.835938 -26.164062 40.890625 -24.109375 35.109375 -23.140625 C 33.816406 -22.890625 32.398438 -22.78125 30.859375 -22.8125 C 29.316406 -22.84375 27.773438 -22.890625 26.234375 -22.953125 C 25.460938 -23.015625 24.671875 -23.0625 23.859375 -23.09375 C 23.054688 -23.125 22.269531 -23.140625 21.5 -23.140625 L 20.4375 -23.140625 L 20.546875 -20.640625 C 20.609375 -19.484375 20.671875 -18.097656 20.734375 -16.484375 C 20.796875 -14.878906 20.828125 -13.5625 20.828125 -12.53125 L 20.828125 -11.671875 C 20.765625 -10.578125 20.679688 -9.484375 20.578125 -8.390625 C 20.484375 -7.296875 20.242188 -6.300781 19.859375 -5.40625 C 19.085938 -3.46875 18.109375 -2.128906 16.921875 -1.390625 C 15.734375 -0.660156 14.65625 -0.226562 13.6875 -0.09375 C 12.40625 0.09375 11.21875 -0.00390625 10.125 -0.390625 C 9.03125 -0.773438 8.226562 -1.253906 7.71875 -1.828125 L 7.421875 -2.03125 C 6.390625 -2.664062 5.773438 -3.578125 5.578125 -4.765625 C 5.390625 -5.960938 5.332031 -7.332031 5.40625 -8.875 C 5.46875 -9.832031 5.53125 -10.796875 5.59375 -11.765625 C 5.65625 -12.734375 5.71875 -13.726562 5.78125 -14.75 C 5.914062 -16.613281 6.03125 -18.523438 6.125 -20.484375 C 6.21875 -22.453125 6.265625 -24.429688 6.265625 -26.421875 C 6.265625 -29.828125 6.117188 -33.265625 5.828125 -36.734375 C 5.546875 -40.210938 5.242188 -43.65625 4.921875 -47.0625 C 4.597656 -50.207031 4.304688 -53.390625 4.046875 -56.609375 C 3.796875 -59.828125 3.632812 -63.039062 3.5625 -66.25 C 3.5625 -67.082031 3.578125 -67.898438 3.609375 -68.703125 C 3.648438 -69.515625 3.734375 -70.304688 3.859375 -71.078125 C 4.367188 -73.648438 5.71875 -75.289062 7.90625 -76 C 8.488281 -76.125 9.066406 -76.1875 9.640625 -76.1875 C 11.242188 -76.1875 12.722656 -75.539062 14.078125 -74.25 C 14.273438 -74.125 14.5 -73.835938 14.75 -73.390625 C 14.945312 -73.128906 15.109375 -72.90625 15.234375 -72.71875 L 15.90625 -71.84375 L 16.6875 -72.421875 C 21.1875 -75.578125 26.328125 -77.410156 32.109375 -77.921875 C 37.128906 -78.304688 41.613281 -77.660156 45.5625 -75.984375 C 49.519531 -74.316406 52.785156 -71.78125 55.359375 -68.375 C 57.929688 -64.96875 59.601562 -60.789062 60.375 -55.84375 Z M 39.0625 -43.875 C 43.039062 -47.664062 44.195312 -51.878906 42.53125 -56.515625 C 41.757812 -58.566406 40.503906 -59.976562 38.765625 -60.75 C 37.347656 -61.332031 35.675781 -61.492188 33.75 -61.234375 C 31.820312 -60.984375 30.003906 -60.390625 28.296875 -59.453125 C 26.597656 -58.523438 25.332031 -57.351562 24.5 -55.9375 C 21.664062 -51.375 20.25 -45.875 20.25 -39.4375 L 20.25 -38.484375 L 21.21875 -38.375 C 21.988281 -38.375 22.695312 -38.375 23.34375 -38.375 C 30.03125 -38.375 35.269531 -40.207031 39.0625 -43.875 Z M 39.0625 -43.875 "/></g></g></g><g fill="#ffffff" fill-opacity="1"><g transform="translate(83.82392, 217.499986)"><g><path d="M 17.359375 -61.625 C 17.804688 -55.320312 18.253906 -49.019531 18.703125 -42.71875 C 19.160156 -36.414062 19.515625 -30.113281 19.765625 -23.8125 C 19.828125 -21.757812 19.695312 -19.671875 19.375 -17.546875 C 19.0625 -15.429688 18.644531 -13.34375 18.125 -11.28125 C 17.675781 -9.414062 16.789062 -8.015625 15.46875 -7.078125 C 14.15625 -6.148438 12.757812 -5.6875 11.28125 -5.6875 C 9.738281 -5.75 8.375 -6.296875 7.1875 -7.328125 C 6 -8.359375 5.144531 -9.804688 4.625 -11.671875 C 4.300781 -12.828125 4.0625 -14 3.90625 -15.1875 C 3.75 -16.375 3.632812 -17.582031 3.5625 -18.8125 C 3.5625 -19.894531 3.578125 -21.851562 3.609375 -24.6875 C 3.648438 -27.519531 3.71875 -30.78125 3.8125 -34.46875 C 3.90625 -38.164062 4.015625 -41.941406 4.140625 -45.796875 C 4.273438 -49.660156 4.421875 -53.25 4.578125 -56.5625 C 4.742188 -59.875 4.921875 -62.460938 5.109375 -64.328125 C 5.171875 -65.160156 5.296875 -66.007812 5.484375 -66.875 C 5.679688 -67.75 6.007812 -68.472656 6.46875 -69.046875 C 7.039062 -69.753906 7.773438 -70.460938 8.671875 -71.171875 C 9.578125 -71.878906 10.414062 -72.234375 11.1875 -72.234375 C 12.019531 -72.171875 12.914062 -71.800781 13.875 -71.125 C 14.84375 -70.445312 15.519531 -69.722656 15.90625 -68.953125 C 16.425781 -67.859375 16.78125 -66.664062 16.96875 -65.375 C 17.164062 -64.09375 17.296875 -62.84375 17.359375 -61.625 Z M 17.359375 -61.625 "/></g></g></g><g fill="#ffffff" fill-opacity="1"><g transform="translate(107.160859, 217.499986)"><g><path d="M 49.5625 -19.28125 C 50.207031 -16.394531 50.238281 -13.96875 49.65625 -12 C 49.082031 -10.039062 47.863281 -8.675781 46 -7.90625 C 44.007812 -7.070312 42.046875 -7.085938 40.109375 -7.953125 C 38.179688 -8.828125 36.382812 -10.484375 34.71875 -12.921875 C 34.59375 -13.117188 34.429688 -13.328125 34.234375 -13.546875 C 34.046875 -13.773438 33.851562 -14.050781 33.65625 -14.375 C 33.144531 -14.050781 32.675781 -13.710938 32.25 -13.359375 C 31.832031 -13.003906 31.367188 -12.695312 30.859375 -12.4375 C 29.503906 -11.789062 28.148438 -11.097656 26.796875 -10.359375 C 25.453125 -9.628906 24.039062 -9.101562 22.5625 -8.78125 C 18.96875 -7.875 15.675781 -8.03125 12.6875 -9.25 C 9.695312 -10.476562 7.363281 -12.472656 5.6875 -15.234375 C 4.019531 -18.003906 3.347656 -21.253906 3.671875 -24.984375 C 3.859375 -28.003906 4.640625 -30.957031 6.015625 -33.84375 C 7.398438 -36.738281 9.171875 -39.421875 11.328125 -41.890625 C 13.484375 -44.367188 15.910156 -46.441406 18.609375 -48.109375 C 21.304688 -49.785156 24.070312 -50.851562 26.90625 -51.3125 C 30.125 -51.882812 33.035156 -51.539062 35.640625 -50.28125 C 38.242188 -49.03125 40.734375 -47.507812 43.109375 -45.71875 C 43.878906 -45.132812 44.441406 -44.226562 44.796875 -43 C 45.148438 -41.78125 45.421875 -40.628906 45.609375 -39.546875 C 46.378906 -36.203125 47.054688 -32.820312 47.640625 -29.40625 C 48.222656 -26 48.863281 -22.625 49.5625 -19.28125 Z M 21.703125 -22.765625 C 24.660156 -23.921875 26.910156 -26.070312 28.453125 -29.21875 C 29.992188 -32.375 30.441406 -35.78125 29.796875 -39.4375 C 26.585938 -38.15625 24.066406 -36.335938 22.234375 -33.984375 C 20.398438 -31.640625 18.9375 -28.957031 17.84375 -25.9375 C 17.707031 -25.488281 17.640625 -24.878906 17.640625 -24.109375 C 17.640625 -23.335938 17.769531 -22.890625 18.03125 -22.765625 C 18.550781 -22.503906 19.144531 -22.375 19.8125 -22.375 C 20.488281 -22.375 21.117188 -22.503906 21.703125 -22.765625 Z M 21.703125 -22.765625 "/></g></g></g><g fill="#ffffff" fill-opacity="1"><g transform="translate(160.874398, 217.499986)"><g><path d="M 44.453125 -41.75 C 47.546875 -37.570312 49.425781 -33.132812 50.09375 -28.4375 C 50.769531 -23.75 50.722656 -18.929688 49.953125 -13.984375 C 49.628906 -12.054688 48.820312 -10.546875 47.53125 -9.453125 C 46.25 -8.359375 44.804688 -7.78125 43.203125 -7.71875 C 41.535156 -7.65625 39.976562 -8.101562 38.53125 -9.0625 C 37.082031 -10.03125 36.132812 -11.476562 35.6875 -13.40625 C 35.101562 -15.65625 34.679688 -17.9375 34.421875 -20.25 C 34.171875 -22.5625 33.882812 -24.878906 33.5625 -27.203125 C 33.4375 -28.035156 33.289062 -28.898438 33.125 -29.796875 C 32.96875 -30.703125 32.789062 -31.765625 32.59375 -32.984375 C 31.882812 -32.398438 31.269531 -31.914062 30.75 -31.53125 C 30.238281 -31.144531 29.828125 -30.726562 29.515625 -30.28125 C 27.390625 -27.582031 25.472656 -24.769531 23.765625 -21.84375 C 22.066406 -18.914062 20.800781 -15.75 19.96875 -12.34375 C 19.382812 -9.894531 18.269531 -8.046875 16.625 -6.796875 C 14.988281 -5.546875 13.113281 -5.015625 11 -5.203125 C 8.875 -5.460938 7.085938 -6.378906 5.640625 -7.953125 C 4.191406 -9.523438 3.5 -11.566406 3.5625 -14.078125 C 3.695312 -18.515625 3.90625 -22.9375 4.1875 -27.34375 C 4.476562 -31.75 4.816406 -36.164062 5.203125 -40.59375 C 5.335938 -42.207031 5.753906 -43.671875 6.453125 -44.984375 C 7.160156 -46.304688 8.515625 -47 10.515625 -47.0625 C 12.316406 -47.125 13.632812 -46.578125 14.46875 -45.421875 C 15.300781 -44.265625 15.941406 -42.914062 16.390625 -41.375 C 16.453125 -41.113281 16.546875 -40.851562 16.671875 -40.59375 C 16.804688 -40.34375 16.9375 -39.992188 17.0625 -39.546875 C 18.226562 -40.503906 19.304688 -41.445312 20.296875 -42.375 C 21.296875 -43.3125 22.3125 -44.132812 23.34375 -44.84375 C 27 -47.476562 30.753906 -48.519531 34.609375 -47.96875 C 38.472656 -47.425781 41.753906 -45.351562 44.453125 -41.75 Z M 44.453125 -41.75 "/></g></g></g><g fill="#ffffff" fill-opacity="1"><g transform="translate(215.070089, 217.499986)"><g><path d="M 17.9375 -41.171875 C 17.9375 -40.085938 17.9375 -38.5 17.9375 -36.40625 C 17.9375 -34.3125 17.921875 -32.078125 17.890625 -29.703125 C 17.859375 -27.328125 17.828125 -25.171875 17.796875 -23.234375 C 17.765625 -21.304688 17.75 -19.957031 17.75 -19.1875 C 17.675781 -18.226562 17.59375 -17.265625 17.5 -16.296875 C 17.40625 -15.328125 17.257812 -14.363281 17.0625 -13.40625 C 16.613281 -10.832031 15.710938 -8.851562 14.359375 -7.46875 C 13.015625 -6.09375 11.472656 -5.46875 9.734375 -5.59375 C 8.003906 -5.71875 6.492188 -6.519531 5.203125 -8 C 3.921875 -9.476562 3.410156 -11.472656 3.671875 -13.984375 C 4.054688 -18.742188 4.632812 -23.484375 5.40625 -28.203125 C 6.175781 -32.929688 6.976562 -37.675781 7.8125 -42.4375 C 8.070312 -43.71875 8.695312 -44.742188 9.6875 -45.515625 C 10.6875 -46.285156 11.925781 -46.578125 13.40625 -46.390625 C 14.882812 -46.253906 15.992188 -45.6875 16.734375 -44.6875 C 17.472656 -43.695312 17.875 -42.523438 17.9375 -41.171875 Z M 10.703125 -54.6875 C 9.160156 -54.75 7.859375 -55.375 6.796875 -56.5625 C 5.734375 -57.75 5.203125 -59.179688 5.203125 -60.859375 C 5.203125 -62.523438 5.78125 -63.953125 6.9375 -65.140625 C 8.09375 -66.328125 9.507812 -66.921875 11.1875 -66.921875 C 12.789062 -66.921875 14.15625 -66.359375 15.28125 -65.234375 C 16.40625 -64.109375 16.9375 -62.710938 16.875 -61.046875 C 16.875 -59.304688 16.242188 -57.789062 14.984375 -56.5 C 13.734375 -55.21875 12.304688 -54.613281 10.703125 -54.6875 Z M 10.703125 -54.6875 "/></g></g></g><g fill="#ffffff" fill-opacity="1"><g transform="translate(236.671223, 217.499986)"><g><path d="M 24.59375 -70.5 C 25.363281 -70.820312 26.132812 -71.0625 26.90625 -71.21875 C 27.675781 -71.375 28.351562 -71.519531 28.9375 -71.65625 C 31.4375 -71.394531 33.726562 -70.894531 35.8125 -70.15625 C 37.90625 -69.414062 39.820312 -68.242188 41.5625 -66.640625 C 42.53125 -65.734375 43.222656 -64.71875 43.640625 -63.59375 C 44.054688 -62.46875 44.039062 -61.234375 43.59375 -59.890625 C 43.144531 -58.597656 42.4375 -57.742188 41.46875 -57.328125 C 40.5 -56.910156 39.4375 -56.671875 38.28125 -56.609375 C 37.507812 -56.609375 36.707031 -56.59375 35.875 -56.5625 C 35.039062 -56.53125 34.207031 -56.515625 33.375 -56.515625 C 28.550781 -56.453125 25.59375 -53.910156 24.5 -48.890625 C 24.4375 -48.703125 24.367188 -48.492188 24.296875 -48.265625 C 24.234375 -48.035156 24.203125 -47.828125 24.203125 -47.640625 C 24.078125 -45.328125 24.015625 -43.640625 24.015625 -42.578125 C 24.015625 -41.515625 24.175781 -40.820312 24.5 -40.5 C 24.820312 -40.175781 25.445312 -40.078125 26.375 -40.203125 C 27.3125 -40.335938 28.613281 -40.503906 30.28125 -40.703125 C 30.726562 -40.703125 31.191406 -40.71875 31.671875 -40.75 C 32.160156 -40.78125 32.628906 -40.796875 33.078125 -40.796875 C 35.003906 -40.660156 36.59375 -40.03125 37.84375 -38.90625 C 39.101562 -37.78125 39.863281 -36.351562 40.125 -34.625 C 40.3125 -32.820312 39.90625 -31.179688 38.90625 -29.703125 C 37.914062 -28.222656 36.457031 -27.257812 34.53125 -26.8125 C 33.300781 -26.488281 32.039062 -26.242188 30.75 -26.078125 C 29.46875 -25.921875 28.1875 -25.8125 26.90625 -25.75 C 25.875 -25.6875 25.179688 -25.445312 24.828125 -25.03125 C 24.472656 -24.613281 24.332031 -23.859375 24.40625 -22.765625 C 24.53125 -20.253906 24.609375 -17.773438 24.640625 -15.328125 C 24.671875 -12.890625 24.6875 -10.414062 24.6875 -7.90625 C 24.6875 -7.195312 24.6875 -6.472656 24.6875 -5.734375 C 24.6875 -4.992188 24.554688 -4.335938 24.296875 -3.765625 C 23.910156 -2.992188 23.410156 -2.238281 22.796875 -1.5 C 22.191406 -0.757812 21.566406 -0.289062 20.921875 -0.09375 C 20.347656 0.09375 19.59375 -0.0195312 18.65625 -0.4375 C 17.726562 -0.851562 17.101562 -1.347656 16.78125 -1.921875 C 15.75 -3.984375 14.78125 -6.070312 13.875 -8.1875 C 12.976562 -10.3125 12.113281 -12.46875 11.28125 -14.65625 C 10.957031 -15.625 10.75 -16.671875 10.65625 -17.796875 C 10.5625 -18.921875 10.445312 -20.03125 10.3125 -21.125 C 10.1875 -22.664062 9.878906 -24 9.390625 -25.125 C 8.910156 -26.25 7.898438 -27.195312 6.359375 -27.96875 C 5.140625 -28.613281 4.320312 -29.515625 3.90625 -30.671875 C 3.488281 -31.828125 3.472656 -33 3.859375 -34.1875 C 4.242188 -35.375 4.984375 -36.351562 6.078125 -37.125 C 6.972656 -37.707031 7.550781 -38.351562 7.8125 -39.0625 C 8.070312 -39.769531 8.265625 -40.601562 8.390625 -41.5625 C 8.515625 -43.6875 8.691406 -45.773438 8.921875 -47.828125 C 9.148438 -49.890625 9.519531 -51.914062 10.03125 -53.90625 C 11.0625 -58.019531 12.828125 -61.441406 15.328125 -64.171875 C 17.835938 -66.910156 20.925781 -69.019531 24.59375 -70.5 Z M 24.59375 -70.5 "/></g></g></g><g fill="#ffffff" fill-opacity="1"><g transform="translate(284.309449, 217.499986)"><g><path d="M 17.9375 -41.171875 C 17.9375 -40.085938 17.9375 -38.5 17.9375 -36.40625 C 17.9375 -34.3125 17.921875 -32.078125 17.890625 -29.703125 C 17.859375 -27.328125 17.828125 -25.171875 17.796875 -23.234375 C 17.765625 -21.304688 17.75 -19.957031 17.75 -19.1875 C 17.675781 -18.226562 17.59375 -17.265625 17.5 -16.296875 C 17.40625 -15.328125 17.257812 -14.363281 17.0625 -13.40625 C 16.613281 -10.832031 15.710938 -8.851562 14.359375 -7.46875 C 13.015625 -6.09375 11.472656 -5.46875 9.734375 -5.59375 C 8.003906 -5.71875 6.492188 -6.519531 5.203125 -8 C 3.921875 -9.476562 3.410156 -11.472656 3.671875 -13.984375 C 4.054688 -18.742188 4.632812 -23.484375 5.40625 -28.203125 C 6.175781 -32.929688 6.976562 -37.675781 7.8125 -42.4375 C 8.070312 -43.71875 8.695312 -44.742188 9.6875 -45.515625 C 10.6875 -46.285156 11.925781 -46.578125 13.40625 -46.390625 C 14.882812 -46.253906 15.992188 -45.6875 16.734375 -44.6875 C 17.472656 -43.695312 17.875 -42.523438 17.9375 -41.171875 Z M 10.703125 -54.6875 C 9.160156 -54.75 7.859375 -55.375 6.796875 -56.5625 C 5.734375 -57.75 5.203125 -59.179688 5.203125 -60.859375 C 5.203125 -62.523438 5.78125 -63.953125 6.9375 -65.140625 C 8.09375 -66.328125 9.507812 -66.921875 11.1875 -66.921875 C 12.789062 -66.921875 14.15625 -66.359375 15.28125 -65.234375 C 16.40625 -64.109375 16.9375 -62.710938 16.875 -61.046875 C 16.875 -59.304688 16.242188 -57.789062 14.984375 -56.5 C 13.734375 -55.21875 12.304688 -54.613281 10.703125 -54.6875 Z M 10.703125 -54.6875 "/></g></g></g><g fill="#ffffff" fill-opacity="1"><g transform="translate(305.910583, 217.499986)"><g><path d="M 34.046875 -45.328125 C 36.929688 -44.878906 39.4375 -43.832031 41.5625 -42.1875 C 43.6875 -40.550781 45.257812 -38.507812 46.28125 -36.0625 C 47.3125 -33.625 47.601562 -30.957031 47.15625 -28.0625 C 46.707031 -24.59375 45.789062 -21.363281 44.40625 -18.375 C 43.03125 -15.382812 41.085938 -12.664062 38.578125 -10.21875 C 34.460938 -6.238281 29.476562 -4.28125 23.625 -4.34375 C 21.632812 -4.789062 19.625 -5.191406 17.59375 -5.546875 C 15.570312 -5.898438 13.597656 -6.398438 11.671875 -7.046875 C 7.878906 -8.390625 5.113281 -10.539062 3.375 -13.5 C 1.632812 -16.457031 1.054688 -19.929688 1.640625 -23.921875 C 2.347656 -28.609375 3.9375 -32.703125 6.40625 -36.203125 C 8.882812 -39.710938 12.148438 -42.6875 16.203125 -45.125 C 19.671875 -47.1875 23.398438 -47.671875 27.390625 -46.578125 C 28.484375 -46.253906 29.59375 -45.992188 30.71875 -45.796875 C 31.84375 -45.609375 32.953125 -45.453125 34.046875 -45.328125 Z M 31.25 -26.71875 C 32.019531 -29.03125 31.441406 -30.859375 29.515625 -32.203125 C 27.710938 -33.492188 26.328125 -34.316406 25.359375 -34.671875 C 24.398438 -35.023438 23.535156 -34.863281 22.765625 -34.1875 C 21.992188 -33.507812 20.992188 -32.269531 19.765625 -30.46875 C 19.378906 -29.894531 19.0625 -29.414062 18.8125 -29.03125 C 16.945312 -25.75 16.363281 -23.445312 17.0625 -22.125 C 17.769531 -20.8125 19.988281 -20.054688 23.71875 -19.859375 C 25.644531 -19.796875 27.140625 -20.265625 28.203125 -21.265625 C 29.265625 -22.265625 30.28125 -24.082031 31.25 -26.71875 Z M 31.25 -26.71875 "/></g></g></g></svg>